<svg version="1.1" xmlns="http://www.w3.org/2000/svg" viewBox="-6.000072450236563 -7.775483174695673 12.000144900473124 15.55096634939134" fill="none" stroke="black" stroke-width="0.6%" vector-effect="non-scaling-stroke">
    <path d="M 5 3.6698 A 5 2.89371 0 0 1 3.52268 5.72337 A 5 2.89371 0 0 1 -5 3.6698" />
    <path d="M 5 -3.6698 A 5 2.89371 0 0 1 3.52268 -1.61622 A 5 2.89371 0 0 1 -5 -3.6698 L -5 3.6698" />
    <path d="M 3.52268 5.72337 A 0.5 0.28728 240.12023 0 1 3.4195 5.95155 C 3.37 5.98 3.32 6.01 3.26339 6.03747 C 3.21 6.07 3.16 6.09 3.10165 6.11912 C 3.05 6.15 2.99 6.17 2.93455 6.19639 C 2.88 6.22 2.82 6.25 2.76235 6.26919 C 2.7 6.29 2.65 6.32 2.58535 6.33742 C 2.53 6.36 2.47 6.38 2.40385 6.40099 C 2.34 6.42 2.28 6.44 2.21814 6.45982 C 2.16 6.48 2.09 6.5 2.02854 6.51381 C 1.99 6.52 1.95 6.54 1.90734 6.54529 C 1.87 6.56 1.83 6.57 1.78482 6.5748 C 1.74 6.58 1.7 6.59 1.66105 6.60233 C 1.62 6.61 1.58 6.62 1.53612 6.62787 C 1.49 6.64 1.45 6.64 1.41011 6.65139 C 1.37 6.66 1.33 6.67 1.28311 6.67289 C 1.24 6.68 1.2 6.69 1.15522 6.69235 C 1.11 6.7 1.07 6.7 1.02651 6.70976 C 0.98 6.72 0.94 6.72 0.89708 6.7251 C 0.85 6.73 0.81 6.73 0.76702 6.73837 C 0.72 6.74 0.68 6.75 0.63642 6.74956 C 0.59 6.75 0.55 6.76 0.50537 6.75867 C 0.46 6.76 0.42 6.76 0.37397 6.76568 C 0.33 6.77 0.29 6.77 0.2423 6.77059 C 0.2 6.77 0.15 6.77 0.11046 6.7734 C 0.07 6.77 0.02 6.77 -0.02146 6.77411 C -0.11 6.77 -0.19 6.77 -0.27473 6.76958 C -0.36 6.77 -0.44 6.76 -0.52728 6.75729 C -0.61 6.75 -0.7 6.75 -0.77847 6.73729 C -0.86 6.73 -0.94 6.72 -1.02763 6.70961 C -1.36 6.67 -1.68 6.61 -1.99135 6.52372 C -3.65 6.07 -4.93 5.16 -5 3.6698" />
    <path d="M -3.4195 -5.95155 A 0.5 0.28728 240.12023 0 1 -3.17041 -5.92577 A 4.5 2.60434 0 0 1 3.17041 -2.22933 A 4.5 2.60434 0 1 1 -3.17041 -5.92577" />
    <path d="M 3.52268 -1.61622 A 0.5 0.28728 60.12023 0 0 3.17041 -2.22933" />
    <path d="M 5 -3.6698 L 5 3.6698 C 5 3.7 5 3.72 4.99838 3.75057 C 5 3.78 5 3.8 4.99351 3.83126 C 4.99 3.86 4.99 3.88 4.98539 3.91179 C 4.98 3.94 4.98 3.97 4.97404 3.99208 C 4.97 4.02 4.96 4.05 4.95949 4.07204 C 4.95 4.1 4.95 4.13 4.94175 4.1516 C 4.94 4.18 4.93 4.2 4.92085 4.23069 C 4.91 4.26 4.91 4.28 4.89683 4.30924 C 4.89 4.34 4.88 4.36 4.86971 4.38719 C 4.86 4.41 4.85 4.44 4.83953 4.46447 C 4.83 4.49 4.82 4.52 4.80633 4.54102 C 4.79 4.57 4.78 4.59 4.77014 4.61678 C 4.76 4.64 4.74 4.67 4.73102 4.69172 C 4.72 4.72 4.7 4.74 4.68901 4.76577 C 4.67 4.79 4.66 4.81 4.64415 4.8389 C 4.63 4.86 4.61 4.89 4.59651 4.91106 C 4.56 4.96 4.53 5.01 4.48752 5.0593 C 4.45 5.11 4.41 5.16 4.36681 5.20281 C 4.32 5.25 4.28 5.3 4.23478 5.34134 C 4.19 5.39 4.14 5.43 4.09184 5.47465 C 4.04 5.52 3.99 5.56 3.93843 5.60252 C 3.89 5.64 3.83 5.68 3.77495 5.72476 C 3.72 5.76 3.66 5.8 3.60183 5.84116 C 3.54 5.88 3.48 5.92 3.4195 5.95155" />
    <path d="M -3.4195 -5.95155 C -3.37 -5.98 -3.32 -6.01 -3.26339 -6.03747 C -3.21 -6.07 -3.16 -6.09 -3.10165 -6.11912 C -3.05 -6.15 -2.99 -6.17 -2.93455 -6.19639 C -2.88 -6.22 -2.82 -6.25 -2.76235 -6.26919 C -2.7 -6.29 -2.65 -6.32 -2.58535 -6.33742 C -2.53 -6.36 -2.47 -6.38 -2.40385 -6.40099 C -2.34 -6.42 -2.28 -6.44 -2.21814 -6.45982 C -2.16 -6.48 -2.09 -6.5 -2.02854 -6.51381 C -1.99 -6.52 -1.95 -6.54 -1.90734 -6.54529 C -1.87 -6.56 -1.83 -6.57 -1.78482 -6.5748 C -1.74 -6.58 -1.7 -6.59 -1.66105 -6.60233 C -1.62 -6.61 -1.58 -6.62 -1.53612 -6.62787 C -1.49 -6.64 -1.45 -6.64 -1.41011 -6.65139 C -1.37 -6.66 -1.33 -6.67 -1.28311 -6.67289 C -1.24 -6.68 -1.2 -6.69 -1.15522 -6.69235 C -1.11 -6.7 -1.07 -6.7 -1.02651 -6.70976 C -0.98 -6.72 -0.94 -6.72 -0.89708 -6.7251 C -0.85 -6.73 -0.81 -6.73 -0.76702 -6.73837 C -0.72 -6.74 -0.68 -6.75 -0.63642 -6.74956 C -0.59 -6.75 -0.55 -6.76 -0.50537 -6.75867 C -0.46 -6.76 -0.42 -6.76 -0.37397 -6.76568 C -0.33 -6.77 -0.29 -6.77 -0.2423 -6.77059 C -0.2 -6.77 -0.15 -6.77 -0.11046 -6.7734 C -0.07 -6.77 -0.02 -6.77 0.02146 -6.77411 C 0.11 -6.77 0.19 -6.77 0.27473 -6.76958 C 0.36 -6.77 0.44 -6.76 0.52728 -6.75729 C 0.61 -6.75 0.7 -6.75 0.77847 -6.73729 C 0.86 -6.73 0.94 -6.72 1.02763 -6.70961 C 1.36 -6.67 1.68 -6.61 1.99135 -6.52372 C 3.65 -6.07 4.93 -5.16 5 -3.6698" />
    <path d="M -5 -3.6698 C -5 -3.7 -5 -3.72 -4.99838 -3.75057 C -5 -3.78 -5 -3.8 -4.99351 -3.83126 C -4.99 -3.86 -4.99 -3.88 -4.98539 -3.91179 C -4.98 -3.94 -4.98 -3.97 -4.97404 -3.99208 C -4.97 -4.02 -4.96 -4.05 -4.95949 -4.07204 C -4.95 -4.1 -4.95 -4.13 -4.94175 -4.1516 C -4.94 -4.18 -4.93 -4.2 -4.92085 -4.23069 C -4.91 -4.26 -4.91 -4.28 -4.89683 -4.30924 C -4.89 -4.34 -4.88 -4.36 -4.86971 -4.38719 C -4.86 -4.41 -4.85 -4.44 -4.83953 -4.46447 C -4.83 -4.49 -4.82 -4.52 -4.80633 -4.54102 C -4.79 -4.57 -4.78 -4.59 -4.77014 -4.61678 C -4.76 -4.64 -4.74 -4.67 -4.73102 -4.69172 C -4.72 -4.72 -4.7 -4.74 -4.68901 -4.76577 C -4.67 -4.79 -4.66 -4.81 -4.64415 -4.8389 C -4.63 -4.86 -4.61 -4.89 -4.59651 -4.91106 C -4.56 -4.96 -4.53 -5.01 -4.48752 -5.0593 C -4.45 -5.11 -4.41 -5.16 -4.36681 -5.20281 C -4.32 -5.25 -4.28 -5.3 -4.23478 -5.34134 C -4.19 -5.39 -4.14 -5.43 -4.09184 -5.47465 C -4.04 -5.52 -3.99 -5.56 -3.93843 -5.60252 C -3.89 -5.64 -3.83 -5.68 -3.77495 -5.72476 C -3.72 -5.76 -3.66 -5.8 -3.60183 -5.84116 C -3.54 -5.88 -3.48 -5.92 -3.4195 -5.95155" />
</svg>