<svg viewBox="0 0 800 800" xmlns="http://www.w3.org/2000/svg"><path d="M597.3500343778778,491.3305402590243 L597.5474698808216,80.6265851566879 M597.3500343778778,491.3305402590243 L638.8771660350606,521.8912064649345 M638.8771660350606,521.8912064649345 L666.5389907722601,557.3051104050683 M666.5389907722601,557.3051104050683 L678.7219915317914,595.5179909923004 M678.7219915317914,595.5179909923004 L674.7097193424756,634.3109060428078 M674.7097193424756,634.3109060428078 L654.726466836544,671.4287408082761 M654.726466836544,671.4287408082761 L619.9261650380586,704.7113930343353 M619.9261650380586,704.7113930343353 L572.3271047773048,732.2200136037593 M572.3271047773048,732.2200136037593 L514.6955659310945,752.3507107227333 M514.6955659310945,752.3507107227333 L450.3850432789361,763.9289596862056 M450.3850432789361,763.9289596862056 L383.1404435354882,766.2789388369795 M383.1404435354882,766.2789388369795 L316.87869389339915,759.263433772987 M316.87869389339915,759.263433772987 L255.45907911706215,743.2920196486044 M255.45907911706215,743.2920196486044 L202.45706682239125,719.2967675751611 M597.5474698808216,80.6265851566879 L639.116185098364,111.1565575552143 M639.116185098364,111.1565575552143 L666.8057357288783,146.53490469547506 M666.8057357288783,146.53490469547506 L679.0009815289,184.7094319267267 M679.0009815289,184.7094319267267 L674.9847450671809,223.46342601612983 M674.9847450671809,223.46342601612983 L654.9815315349595,260.5440341645415 M654.9815315349595,260.5440341645415 L620.1464171632535,293.7933176175872 M620.1464171632535,293.7933176175872 L572.4997075743474,321.27436653792756 M572.4997075743474,321.27436653792756 L514.8104518269968,341.38489151052846 M514.8104518269968,341.38489151052846 L450.4355073395155,352.9515401749516 M450.4355073395155,352.9515401749516 L383.1235396300951,355.29916503072855 M383.1235396300951,355.29916503072855 L316.7954089542334,348.2906885156508 M316.7954089542334,348.2906885156508 L255.31427473648912,332.3352772904782 M255.31427473648912,332.3352772904782 L202.25919184144774,308.36407244665156 M202.45706682239125,719.2967675751611 L202.25919184144774,308.36407244665156 M202.45706682239125,719.2967675751611 L160.9550658105464,688.6772418782361 M160.9550658105464,688.6772418782361 L133.36287584319336,653.2179624485876 M133.36287584319336,653.2179624485876 L121.27806144139379,614.983585358232 M121.27806144139379,614.983585358232 L125.39457830693999,576.1979773612152 M125.39457830693999,576.1979773612152 L145.46425264431846,539.114579257415 M145.46425264431846,539.114579257415 L180.31335520444298,505.8856042804008 M180.31335520444298,505.8856042804008 L227.91241549666915,478.43760475446703 M227.91241549666915,478.43760475446703 L285.49515361699684,458.36058491824843 M285.49515361699684,458.36058491824843 L349.71925441538804,446.8167726317987 M349.71925441538804,446.8167726317987 L416.85960942148984,444.47410055420676 M416.85960942148984,444.47410055420676 L483.0231726587326,451.46810907528607 M483.0231726587326,451.46810907528607 L544.3731526728102,467.3941476981237 M544.3731526728102,467.3941476981237 L597.3500343778778,491.3305402590243 M202.25919184144774,308.36407244665156 L160.7156576088989,277.77524075380757 M160.7156576088989,277.77524075380757 L133.09588123476567,242.35151827569152 M133.09588123476567,242.35151827569152 L120.99901847109999,204.1554946131713 M120.99901847109999,204.1554946131713 L125.11970842317487,165.40880755283334 M125.11970842317487,165.40880755283334 L145.20951689978062,128.36263595098512 M145.20951689978062,128.36263595098512 L180.093529786752,95.1670295675907 M180.093529786752,95.1670295675907 L227.7402394072564,67.7466014881739 M227.7402394072564,67.7466014881739 L285.38059667524186,47.689753618994644 M285.38059667524186,47.689753618994644 L349.66894619592904,36.1575415165571 M349.66894619592904,36.1575415165571 L416.87646035363275,33.81722370955396 M416.87646035363275,33.81722370955396 L483.10620794583485,40.804203753525826 M483.10620794583485,40.804203753525826 L544.5175679148156,56.7142396287403 M544.5175679148156,56.7142396287403 L597.5474698808216,80.6265851566879 M597.3500343778778,491.3305402590243 L596.8531115282285,496.6881042028266 M596.8531115282285,496.6881042028266 L595.3921468140184,502.3478538751174 M595.3921468140184,502.3478538751174 L593.040427710826,508.02602945073215 M593.040427710826,508.02602945073215 L589.9158207853707,513.4379921280937 M589.9158207853707,513.4379921280937 L586.1750152363752,518.312399836811 M586.1750152363752,518.312399836811 L582.0055150034655,522.4048932511602 M582.0055150034655,522.4048932511602 L577.6163558586388,525.5102740745767 M577.6163558586388,525.5102740745767 L614.9875787492688,553.0190468920157 M614.9875787492688,553.0190468920157 L639.8787072233652,584.8953704762829 M639.8787072233652,584.8953704762829 L650.8383704430303,619.2898463992944 M650.8383704430303,619.2898463992944 L647.2228368625915,654.2050803747196 M647.2228368625915,654.2050803747196 L629.2350026951565,687.6114323007331 M629.2350026951565,687.6114323007331 L597.9142730751937,717.565064441302 M597.9142730751937,717.565064441302 L555.077496349219,742.3214649129026 M555.077496349219,742.3214649129026 L503.21419070660824,760.43767574382 M503.21419070660824,760.43767574382 L445.34183855031824,770.857131848748 M445.34183855031824,770.857131848748 L384.82976197290384,772.9718981563069 M384.82976197290384,772.9718981563069 L325.2019184806095,766.6585687330837 M325.2019184806095,766.6585687330837 L269.9304780643993,752.2855444533387 M269.9304780643993,752.2855444533387 L222.2324505596877,730.6912674645866 M202.45706682239125,719.2967675751611 L202.95509384021952,724.0855841160918 M202.95509384021952,724.0855841160918 L204.4192886834307,728.0619395988016 M204.4192886834307,728.0619395988016 L206.77615670785104,731.0264806021685 M206.77615670785104,731.0264806021685 L209.90750812525357,732.830575259609 M209.90750812525357,732.830575259609 L213.65624324051151,733.383846557799 M213.65624324051151,733.383846557799 L217.83439556683294,732.6586013643654 M217.83439556683294,732.6586013643654 L222.2324505596877,730.6912674645866 M597.5474698808216,80.6265851566879 L597.0549218473238,75.8293823610062 M597.0549218473238,75.8293823610062 L595.5970533112579,71.84295088967525 M595.5970533112579,71.84295088967525 L593.2469400724722,68.8672083639085 M593.2469400724722,68.8672083639085 L590.1223367752204,67.05141031527364 M590.1223367752204,67.05141031527364 L586.3799323766934,66.48669686991599 M586.3799323766934,66.48669686991599 L582.2073422029375,67.20141834616447 M582.2073422029375,67.20141834616447 L577.813813312275,69.15981169093129 M577.813813312275,69.15981169093129 L615.226617270386,96.6378906799315 M615.226617270386,96.6378906799315 L640.1454646793213,128.4786574466391 M640.1454646793213,128.4786574466391 L651.1173631027259,162.83477999289298 M651.1173631027259,162.83477999289298 L647.4978548113961,197.7110929975156 M647.4978548113961,197.7110929975156 L629.4900509357674,231.08021830465776 M629.4900509357674,231.08021830465776 L598.1345038421616,261.0004816679625 M598.1345038421616,261.0004816679625 L555.250077777072,285.72931048772926 M555.250077777072,285.72931048772926 L503.3290601211019,303.825349172325 M503.3290601211019,303.825349172325 L445.39229480566985,314.2332049693192 M445.39229480566985,314.2332049693192 L384.81286072320603,316.3456169846293 M384.81286072320603,316.3456169846293 L325.1186460385312,310.0393161044794 M325.1186460385312,310.0393161044794 L269.7856931664271,295.6822947256668 M269.7856931664271,295.6822947256668 L222.0345975758518,274.1120649743749 M202.25919184144774,308.36407244665156 L202.75283543260437,302.9930544192183 M202.75283543260437,302.9930544192183 L204.2139306001324,297.3196436115094 M204.2139306001324,297.3196436115094 L206.56919470344326,291.62840920514395 M206.56919470344326,291.62840920514395 L209.70054977120205,286.20474313124726 M209.70054977120205,286.20474313124726 L213.45089581800679,281.3207505464042 M213.45089581800679,281.3207505464042 L217.63215407808255,277.2213185432429 M217.63215407808255,277.2213185432429 L222.0345975758518,274.1120649743749 M222.2324505596877,730.6912674645866 L184.88158121498424,703.1348184656651 M184.88158121498424,703.1348184656651 L160.0468506307697,671.2217407369022 M160.0468506307697,671.2217407369022 L149.16670953858272,636.8098526430006 M149.16670953858272,636.8098526430006 L152.86667192396934,601.900537381395 M152.86667192396934,601.900537381395 L170.92449997962643,568.5220791465551 M170.92449997962643,568.5220791465551 L202.28475382136642,538.6119255737277 M202.28475382136642,538.6119255737277 L245.12153056798567,513.9046281404742 M245.12153056798567,513.9046281404742 L296.9453120122737,495.83189589552956 M296.9453120122737,495.83189589552956 L354.7476702657005,485.440333511214 M354.7476702657005,485.440333511214 L415.175317998078,483.33148592401756 M415.175317998078,483.33148592401756 L474.72363933198926,489.62740316749716 M474.72363933198926,489.62740316749716 L529.9386818632945,503.96367329637167 M529.9386818632945,503.96367329637167 L577.6163558586388,525.5102740745767 M222.0345975758518,274.1120649743749 L184.64219246931688,246.58630998095433 M184.64219246931688,246.58630998095433 L159.7798684881357,214.70878920626714 M159.7798684881357,214.70878920626714 L148.887669203021,180.33525455380237 M148.887669203021,180.33525455380237 L152.59179423203085,145.4648602410133 M152.59179423203085,145.4648602410133 L170.66974779749924,112.12362852143423 M170.66974779749924,112.12362852143423 L202.0649070911378,82.24684356438752 M202.0649070911378,82.24684356438752 L244.94933317696382,57.56711760061944 M244.94933317696382,57.56711760061944 L296.8307386564604,39.51455734055696 M296.8307386564604,39.51455734055696 L354.69735426734627,29.134595160614083 M354.69735426734627,29.134595160614083 L415.1921715718625,27.028101843693094 M415.1921715718625,27.028101843693094 L474.80668708720435,33.316990608743595 M474.80668708720435,33.316990608743595 L530.0831165365535,47.63725797314925 M530.0831165365535,47.63725797314925 L577.813813312275,69.15981169093129" stroke="black"  stroke-width="4"  fill="red"/></svg>